<?xml version="1.0"?>
<svg xmlns="http://www.w3.org/2000/svg" viewBox="0 0 16 16">
    <path style="line-height:normal;text-indent:0;text-align:start;text-decoration-line:none;text-decoration-style:solid;text-decoration-color:#000;text-transform:none;block-progression:tb;isolation:auto;mix-blend-mode:normal" d="M 6.5 1 A 0.50005 0.50005 0 0 0 6 1.5 L 6 2.2792969 C 5.6009258 2.3972614 5.2251704 2.5536338 4.8730469 2.7519531 L 4.3183594 2.1972656 A 0.50005 0.50005 0 0 0 3.6113281 2.1972656 L 2.1972656 3.6113281 A 0.50005 0.50005 0 0 0 2.1972656 4.3183594 L 2.7558594 4.8769531 C 2.5592744 5.2289278 2.403627 5.6036796 2.2871094 6 L 1.5 6 A 0.50005 0.50005 0 0 0 1 6.5 L 1 8.5 A 0.50005 0.50005 0 0 0 1.5 9 L 2.2792969 9 C 2.3972614 9.3990742 2.5536338 9.7748297 2.7519531 10.126953 L 2.1972656 10.681641 A 0.50005 0.50005 0 0 0 2.1972656 11.388672 L 3.6113281 12.802734 A 0.50005 0.50005 0 0 0 4.3183594 12.802734 L 4.8769531 12.244141 C 5.2279651 12.440554 5.6021359 12.596548 5.9980469 12.712891 L 5.9980469 13.5 A 0.50005 0.50005 0 0 0 6.4980469 14 L 8.4980469 14 A 0.50005 0.50005 0 0 0 8.9980469 13.5 L 8.9980469 12.720703 C 9.3967908 12.602868 9.7731227 12.446115 10.125 12.248047 L 10.681641 12.802734 A 0.50005 0.50005 0 0 0 11.388672 12.802734 L 12.802734 11.388672 A 0.50005 0.50005 0 0 0 12.802734 10.681641 L 12.242188 10.123047 C 12.438766 9.7718469 12.596475 9.3981098 12.712891 9.0019531 L 13.5 9.0019531 A 0.50005 0.50005 0 0 0 14 8.5019531 L 14 8.5 L 14 6.5 A 0.50005 0.50005 0 0 0 13.5 6 L 12.710938 6 C 12.598295 5.6047481 12.445413 5.2279487 12.25 4.8710938 L 12.802734 4.3183594 A 0.50005 0.50005 0 0 0 12.802734 3.6113281 L 11.390625 2.1972656 A 0.50005 0.50005 0 0 0 10.681641 2.1972656 L 10.130859 2.7480469 C 9.7758843 2.550547 9.3990268 2.3932025 9 2.2773438 L 9 1.5 A 0.50005 0.50005 0 0 0 8.5 1 L 6.5 1 z M 7 2 L 8 2 L 8 2.6015625 A 0.50005 0.50005 0 0 0 8.4003906 3.0917969 C 8.972316 3.207437 9.5041235 3.4344963 9.9785156 3.7480469 A 0.50005 0.50005 0 0 0 10.609375 3.6835938 L 11.035156 3.2578125 L 11.742188 3.9648438 L 11.314453 4.3925781 A 0.50005 0.50005 0 0 0 11.251953 5.0214844 C 11.560924 5.487167 11.777391 6.0242802 11.896484 6.6015625 A 0.50005 0.50005 0 0 0 12.386719 7 L 13 7 L 13 8.0019531 L 12.390625 8.0019531 A 0.50005 0.50005 0 0 0 11.900391 8.4023438 C 11.785114 8.9706845 11.555977 9.496389 11.242188 9.9707031 A 0.50005 0.50005 0 0 0 11.304688 10.599609 L 11.742188 11.035156 L 11.035156 11.742188 L 10.599609 11.308594 A 0.50005 0.50005 0 0 0 9.9707031 11.244141 C 9.492025 11.560524 8.9681758 11.7934 8.4003906 11.908203 A 0.50005 0.50005 0 0 0 7.9980469 12.398438 L 7.9980469 13 L 6.9980469 13 L 6.9980469 12.390625 A 0.50005 0.50005 0 0 0 6.5976562 11.900391 C 6.0293154 11.785114 5.503611 11.555977 5.0292969 11.242188 A 0.50005 0.50005 0 0 0 4.4003906 11.306641 L 3.9648438 11.742188 L 3.2578125 11.035156 L 3.6914062 10.601562 A 0.50005 0.50005 0 0 0 3.7558594 9.9726562 C 3.4394759 9.4939782 3.2065998 8.9681758 3.0917969 8.4003906 A 0.50005 0.50005 0 0 0 2.6015625 8 L 2 8 L 2 7 L 2.609375 7 A 0.50005 0.50005 0 0 0 3.0996094 6.5996094 C 3.215986 6.0302592 3.4440182 5.504523 3.7578125 5.0292969 A 0.50005 0.50005 0 0 0 3.6933594 4.4003906 L 3.2578125 3.9648438 L 3.9648438 3.2578125 L 4.3984375 3.6914062 A 0.50005 0.50005 0 0 0 5.0273438 3.7558594 C 5.5060219 3.4394761 6.0318242 3.2065998 6.5996094 3.0917969 A 0.50005 0.50005 0 0 0 7 2.6015625 L 7 2 z M 7.5878906 5.0019531 C 6.2139578 4.9534221 5.0504841 6.0381767 5.0019531 7.4121094 C 4.9534221 8.7860422 6.0381767 9.9495159 7.4121094 9.9980469 C 8.7860422 10.046578 9.9495159 8.9618233 9.9980469 7.5878906 C 10.046578 6.2139578 8.9618233 5.0504841 7.5878906 5.0019531 z M 7.5527344 6 C 8.3865638 6.0294531 9.0294531 6.718905 9 7.5527344 C 8.9705469 8.3865638 8.281095 9.0294531 7.4472656 9 C 6.6134362 8.9705469 5.9705469 8.281095 6 7.4472656 C 6.0294531 6.6134362 6.718905 5.9705469 7.5527344 6 z" font-weight="400" font-family="sans-serif" white-space="normal" overflow="visible"/>
</svg>
