<?xml version="1.0" encoding="iso-8859-1"?>
<!-- Generator: Adobe Illustrator 18.0.0, SVG Export Plug-In . SVG Version: 6.00 Build 0)  -->
<!DOCTYPE svg PUBLIC "-//W3C//DTD SVG 1.1//EN" "http://www.w3.org/Graphics/SVG/1.1/DTD/svg11.dtd">
<svg version="1.1" id="Capa_1" xmlns="http://www.w3.org/2000/svg" xmlns:xlink="http://www.w3.org/1999/xlink" x="0px" y="0px"
	 viewBox="0 0 408.691 408.691" style="enable-background:new 0 0 408.691 408.691;" xml:space="preserve">
<path d="M401.961,263.764l-19.495-27.952l13.602-91.804c1.09-7.356-1.078-14.823-5.936-20.454
	c-4.551-5.276-11.044-8.451-17.961-8.828V61.4c0-25.979-21.137-47.113-47.116-47.113h-76.502c-25.458,0-38.976,10.75-48.844,18.6
	c-7.933,6.31-12.722,10.118-22.995,10.118H66.158c-23.151,0-41.984,18.356-41.984,40.919v30.802
	c-6.92,0.377-13.411,3.552-17.963,8.828c-4.856,5.631-7.023,13.097-5.934,20.453l30.687,207.115
	c1.855,12.539,12.62,21.826,25.295,21.826h221.583c5.972,12.667,18.862,21.457,33.772,21.457h26.122
	c20.578,0,37.319-16.74,37.319-37.319v-34.834c12.469-1.226,23.511-8.608,29.384-19.874
	C410.895,290.007,409.945,275.21,401.961,263.764z M54.961,114.685V83.924c0-6.341,5.692-10.132,11.196-10.132h110.556
	c21.024,0,32.745-9.32,42.161-16.809c8.689-6.914,14.972-11.909,29.678-11.909h76.502c9.002,0,16.326,7.324,16.326,16.326v53.285
	H54.961z M382.83,291.731c-2.413,4.623-7.194,7.522-12.409,7.522h-19.623v57.978c0,7.73-6.268,13.994-13.998,13.994h-26.12
	c-7.73,0-13.997-6.264-13.997-13.994v-57.979h-19.625c-5.213,0-9.995-2.899-12.408-7.522c-2.411-4.622-2.052-10.203,0.93-14.478
	l46.684-66.917c2.617-3.754,6.901-5.989,11.479-5.989c4.573,0,8.858,2.235,11.477,5.989l46.682,66.918
	C384.882,281.528,385.242,287.109,382.83,291.731z"/>
<g>
</g>
<g>
</g>
<g>
</g>
<g>
</g>
<g>
</g>
<g>
</g>
<g>
</g>
<g>
</g>
<g>
</g>
<g>
</g>
<g>
</g>
<g>
</g>
<g>
</g>
<g>
</g>
<g>
</g>
</svg>
